<svg xmlns="http://www.w3.org/2000/svg" xmlns:xlink="http://www.w3.org/1999/xlink" width="50" zoomAndPan="magnify" viewBox="0 0 37.5 37.499999" height="50" preserveAspectRatio="xMidYMid meet" version="1.2"><defs><clipPath id="bbaad4b154"><path d="M 6.175781 0 L 30.601562 0 L 30.601562 37 L 6.175781 37 Z M 6.175781 0 "/></clipPath></defs><g id="5a1fdfe817"><g clip-rule="nonzero" clip-path="url(#bbaad4b154)"><path style=" stroke:none;fill-rule:nonzero;fill:#f5fbf9;fill-opacity:1;" d="M 18.386719 0.0117188 C 11.332031 0.0117188 6.175781 5.847656 6.175781 12.222656 C 6.175781 14.257812 6.71875 16.292969 7.804688 18.328125 L 18.386719 36.648438 L 28.972656 18.328125 C 30.058594 16.429688 30.601562 14.257812 30.601562 12.222656 C 30.601562 5.847656 25.445312 0.0117188 18.386719 0.0117188 Z M 18.386719 17.652344 C 15.539062 17.652344 13.230469 15.34375 13.230469 12.496094 C 13.230469 9.644531 15.539062 7.339844 18.386719 7.339844 C 21.238281 7.339844 23.542969 9.644531 23.542969 12.496094 C 23.542969 15.34375 21.238281 17.652344 18.386719 17.652344 Z M 18.386719 17.652344 "/></g></g></svg>