<svg xmlns="http://www.w3.org/2000/svg" xmlns:xlink="http://www.w3.org/1999/xlink" width="50" zoomAndPan="magnify" viewBox="0 0 37.5 37.499999" height="50" preserveAspectRatio="xMidYMid meet" version="1.2"><defs><clipPath id="db114fe1d9"><path d="M 1.851562 0 L 35.15625 0 L 35.15625 37.007812 L 1.851562 37.007812 Z M 1.851562 0 "/></clipPath><clipPath id="74e390b7ec"><path d="M 1.851562 26 L 4 26 L 4 28 L 1.851562 28 Z M 1.851562 26 "/></clipPath></defs><g id="a50ca69313"><path style=" stroke:none;fill-rule:nonzero;fill:#f5fbf9;fill-opacity:1;" d="M 6.167969 17.882812 L 8.636719 17.882812 C 8.796875 17.882812 8.957031 17.851562 9.105469 17.789062 C 9.257812 17.726562 9.390625 17.636719 9.507812 17.519531 C 9.621094 17.40625 9.710938 17.273438 9.773438 17.121094 C 9.835938 16.96875 9.867188 16.8125 9.867188 16.648438 L 9.867188 14.183594 C 9.867188 14.019531 9.835938 13.859375 9.773438 13.710938 C 9.710938 13.558594 9.621094 13.425781 9.507812 13.308594 C 9.390625 13.195312 9.257812 13.105469 9.105469 13.042969 C 8.957031 12.980469 8.796875 12.949219 8.636719 12.949219 L 6.167969 12.949219 C 6.003906 12.949219 5.847656 12.980469 5.695312 13.042969 C 5.542969 13.105469 5.410156 13.195312 5.296875 13.308594 C 5.179688 13.425781 5.089844 13.558594 5.027344 13.710938 C 4.964844 13.859375 4.933594 14.019531 4.933594 14.183594 L 4.933594 16.648438 C 4.933594 16.8125 4.964844 16.96875 5.027344 17.121094 C 5.089844 17.273438 5.179688 17.40625 5.296875 17.519531 C 5.410156 17.636719 5.542969 17.726562 5.695312 17.789062 C 5.847656 17.851562 6.003906 17.882812 6.167969 17.882812 Z M 6.167969 14.183594 L 8.636719 14.183594 L 8.636719 16.648438 L 6.167969 16.648438 Z M 6.167969 14.183594 "/><path style=" stroke:none;fill-rule:nonzero;fill:#f5fbf9;fill-opacity:1;" d="M 13.570312 17.882812 L 16.035156 17.882812 C 16.199219 17.882812 16.355469 17.851562 16.507812 17.789062 C 16.660156 17.726562 16.792969 17.636719 16.910156 17.519531 C 17.023438 17.40625 17.113281 17.273438 17.175781 17.121094 C 17.238281 16.96875 17.269531 16.8125 17.269531 16.648438 L 17.269531 14.183594 C 17.269531 14.019531 17.238281 13.859375 17.175781 13.710938 C 17.113281 13.558594 17.023438 13.425781 16.910156 13.308594 C 16.792969 13.195312 16.660156 13.105469 16.507812 13.042969 C 16.355469 12.980469 16.199219 12.949219 16.035156 12.949219 L 13.570312 12.949219 C 13.40625 12.949219 13.25 12.980469 13.097656 13.042969 C 12.945312 13.105469 12.8125 13.195312 12.695312 13.308594 C 12.582031 13.425781 12.492188 13.558594 12.429688 13.710938 C 12.367188 13.859375 12.335938 14.019531 12.335938 14.183594 L 12.335938 16.648438 C 12.335938 16.8125 12.367188 16.96875 12.429688 17.121094 C 12.492188 17.273438 12.582031 17.40625 12.695312 17.519531 C 12.8125 17.636719 12.945312 17.726562 13.097656 17.789062 C 13.25 17.851562 13.40625 17.882812 13.570312 17.882812 Z M 13.570312 14.183594 L 16.035156 14.183594 L 16.035156 16.648438 L 13.570312 16.648438 Z M 13.570312 14.183594 "/><path style=" stroke:none;fill-rule:nonzero;fill:#f5fbf9;fill-opacity:1;" d="M 20.96875 17.882812 L 23.4375 17.882812 C 23.601562 17.882812 23.757812 17.851562 23.910156 17.789062 C 24.0625 17.726562 24.195312 17.636719 24.308594 17.519531 C 24.425781 17.40625 24.515625 17.273438 24.578125 17.121094 C 24.640625 16.96875 24.671875 16.8125 24.671875 16.648438 L 24.671875 14.183594 C 24.671875 14.019531 24.640625 13.859375 24.578125 13.710938 C 24.515625 13.558594 24.425781 13.425781 24.308594 13.308594 C 24.195312 13.195312 24.0625 13.105469 23.910156 13.042969 C 23.757812 12.980469 23.601562 12.949219 23.4375 12.949219 L 20.96875 12.949219 C 20.808594 12.949219 20.648438 12.980469 20.5 13.042969 C 20.347656 13.105469 20.214844 13.195312 20.097656 13.308594 C 19.984375 13.425781 19.894531 13.558594 19.832031 13.710938 C 19.769531 13.859375 19.738281 14.019531 19.738281 14.183594 L 19.738281 16.648438 C 19.738281 16.8125 19.769531 16.96875 19.832031 17.121094 C 19.894531 17.273438 19.984375 17.40625 20.097656 17.519531 C 20.214844 17.636719 20.347656 17.726562 20.5 17.789062 C 20.648438 17.851562 20.808594 17.882812 20.96875 17.882812 Z M 20.96875 14.183594 L 23.4375 14.183594 L 23.4375 16.648438 L 20.96875 16.648438 Z M 20.96875 14.183594 "/><path style=" stroke:none;fill-rule:nonzero;fill:#f5fbf9;fill-opacity:1;" d="M 28.371094 17.882812 L 30.839844 17.882812 C 31.003906 17.882812 31.160156 17.851562 31.3125 17.789062 C 31.460938 17.726562 31.59375 17.636719 31.710938 17.519531 C 31.828125 17.40625 31.914062 17.273438 31.976562 17.121094 C 32.042969 16.96875 32.074219 16.8125 32.074219 16.648438 L 32.074219 14.183594 C 32.074219 14.019531 32.042969 13.859375 31.976562 13.710938 C 31.914062 13.558594 31.828125 13.425781 31.710938 13.308594 C 31.59375 13.195312 31.460938 13.105469 31.3125 13.042969 C 31.160156 12.980469 31.003906 12.949219 30.839844 12.949219 L 28.371094 12.949219 C 28.207031 12.949219 28.050781 12.980469 27.898438 13.042969 C 27.75 13.105469 27.613281 13.195312 27.5 13.308594 C 27.382812 13.425781 27.292969 13.558594 27.230469 13.710938 C 27.167969 13.859375 27.136719 14.019531 27.136719 14.183594 L 27.136719 16.648438 C 27.136719 16.8125 27.167969 16.96875 27.230469 17.121094 C 27.292969 17.273438 27.382812 17.40625 27.5 17.519531 C 27.613281 17.636719 27.75 17.726562 27.898438 17.789062 C 28.050781 17.851562 28.207031 17.882812 28.371094 17.882812 Z M 28.371094 14.183594 L 30.839844 14.183594 L 30.839844 16.648438 L 28.371094 16.648438 Z M 28.371094 14.183594 "/><path style=" stroke:none;fill-rule:nonzero;fill:#f5fbf9;fill-opacity:1;" d="M 4.933594 23.433594 C 4.933594 23.597656 4.964844 23.753906 5.027344 23.90625 C 5.089844 24.058594 5.179688 24.191406 5.296875 24.304688 C 5.410156 24.421875 5.542969 24.511719 5.695312 24.574219 C 5.847656 24.636719 6.003906 24.667969 6.167969 24.667969 L 8.636719 24.667969 C 8.796875 24.667969 8.957031 24.636719 9.105469 24.574219 C 9.257812 24.511719 9.390625 24.421875 9.507812 24.304688 C 9.621094 24.191406 9.710938 24.058594 9.773438 23.90625 C 9.835938 23.753906 9.867188 23.597656 9.867188 23.433594 L 9.867188 20.964844 C 9.867188 20.804688 9.835938 20.644531 9.773438 20.496094 C 9.710938 20.34375 9.621094 20.210938 9.507812 20.09375 C 9.390625 19.980469 9.257812 19.890625 9.105469 19.828125 C 8.957031 19.765625 8.796875 19.734375 8.636719 19.734375 L 6.167969 19.734375 C 6.003906 19.734375 5.847656 19.765625 5.695312 19.828125 C 5.542969 19.890625 5.410156 19.980469 5.296875 20.09375 C 5.179688 20.210938 5.089844 20.34375 5.027344 20.496094 C 4.964844 20.644531 4.933594 20.804688 4.933594 20.964844 Z M 6.167969 20.964844 L 8.636719 20.964844 L 8.636719 23.433594 L 6.167969 23.433594 Z M 6.167969 20.964844 "/><path style=" stroke:none;fill-rule:nonzero;fill:#f5fbf9;fill-opacity:1;" d="M 12.335938 23.125 C 12.335938 23.289062 12.367188 23.445312 12.429688 23.597656 C 12.492188 23.75 12.582031 23.882812 12.695312 23.996094 C 12.8125 24.113281 12.945312 24.203125 13.097656 24.265625 C 13.25 24.328125 13.40625 24.359375 13.570312 24.359375 L 16.035156 24.359375 C 16.199219 24.359375 16.355469 24.328125 16.507812 24.265625 C 16.660156 24.203125 16.792969 24.113281 16.910156 23.996094 C 17.023438 23.882812 17.113281 23.75 17.175781 23.597656 C 17.238281 23.445312 17.269531 23.289062 17.269531 23.125 L 17.269531 20.65625 C 17.269531 20.496094 17.238281 20.335938 17.175781 20.1875 C 17.113281 20.035156 17.023438 19.902344 16.910156 19.785156 C 16.792969 19.671875 16.660156 19.582031 16.507812 19.519531 C 16.355469 19.457031 16.199219 19.425781 16.035156 19.425781 L 13.570312 19.425781 C 13.40625 19.425781 13.25 19.457031 13.097656 19.519531 C 12.945312 19.582031 12.8125 19.671875 12.695312 19.785156 C 12.582031 19.902344 12.492188 20.035156 12.429688 20.1875 C 12.367188 20.335938 12.335938 20.496094 12.335938 20.65625 Z M 13.570312 20.65625 L 16.035156 20.65625 L 16.035156 23.125 L 13.570312 23.125 Z M 13.570312 20.65625 "/><path style=" stroke:none;fill-rule:nonzero;fill:#f5fbf9;fill-opacity:1;" d="M 19.738281 23.125 C 19.738281 23.289062 19.769531 23.445312 19.832031 23.597656 C 19.894531 23.75 19.984375 23.882812 20.097656 23.996094 C 20.214844 24.113281 20.347656 24.203125 20.5 24.265625 C 20.648438 24.328125 20.808594 24.359375 20.96875 24.359375 L 23.4375 24.359375 C 23.601562 24.359375 23.757812 24.328125 23.910156 24.265625 C 24.0625 24.203125 24.195312 24.113281 24.308594 23.996094 C 24.425781 23.882812 24.515625 23.75 24.578125 23.597656 C 24.640625 23.445312 24.671875 23.289062 24.671875 23.125 L 24.671875 20.65625 C 24.671875 20.496094 24.640625 20.335938 24.578125 20.1875 C 24.515625 20.035156 24.425781 19.902344 24.308594 19.785156 C 24.195312 19.671875 24.0625 19.582031 23.910156 19.519531 C 23.757812 19.457031 23.601562 19.425781 23.4375 19.425781 L 20.96875 19.425781 C 20.808594 19.425781 20.648438 19.457031 20.5 19.519531 C 20.347656 19.582031 20.214844 19.671875 20.097656 19.785156 C 19.984375 19.902344 19.894531 20.035156 19.832031 20.1875 C 19.769531 20.335938 19.738281 20.496094 19.738281 20.65625 Z M 20.96875 20.65625 L 23.4375 20.65625 L 23.4375 23.125 L 20.96875 23.125 Z M 20.96875 20.65625 "/><path style=" stroke:none;fill-rule:nonzero;fill:#f5fbf9;fill-opacity:1;" d="M 27.136719 23.125 C 27.136719 23.289062 27.167969 23.445312 27.230469 23.597656 C 27.292969 23.75 27.382812 23.882812 27.5 23.996094 C 27.613281 24.113281 27.75 24.203125 27.898438 24.265625 C 28.050781 24.328125 28.207031 24.359375 28.371094 24.359375 L 30.839844 24.359375 C 31.003906 24.359375 31.160156 24.328125 31.3125 24.265625 C 31.460938 24.203125 31.59375 24.113281 31.710938 23.996094 C 31.828125 23.882812 31.914062 23.75 31.976562 23.597656 C 32.042969 23.445312 32.074219 23.289062 32.074219 23.125 L 32.074219 20.65625 C 32.074219 20.496094 32.042969 20.335938 31.976562 20.1875 C 31.914062 20.035156 31.828125 19.902344 31.710938 19.785156 C 31.59375 19.671875 31.460938 19.582031 31.3125 19.519531 C 31.160156 19.457031 31.003906 19.425781 30.839844 19.425781 L 28.371094 19.425781 C 28.207031 19.425781 28.050781 19.457031 27.898438 19.519531 C 27.75 19.582031 27.613281 19.671875 27.5 19.785156 C 27.382812 19.902344 27.292969 20.035156 27.230469 20.1875 C 27.167969 20.335938 27.136719 20.496094 27.136719 20.65625 Z M 28.371094 20.65625 L 30.839844 20.65625 L 30.839844 23.125 L 28.371094 23.125 Z M 28.371094 20.65625 "/><path style=" stroke:none;fill-rule:nonzero;fill:#f5fbf9;fill-opacity:1;" d="M 4.933594 29.601562 C 4.933594 29.765625 4.964844 29.921875 5.027344 30.074219 C 5.089844 30.222656 5.179688 30.359375 5.296875 30.472656 C 5.410156 30.589844 5.542969 30.679688 5.695312 30.742188 C 5.847656 30.804688 6.003906 30.835938 6.167969 30.835938 L 8.636719 30.835938 C 8.796875 30.835938 8.957031 30.804688 9.105469 30.742188 C 9.257812 30.679688 9.390625 30.589844 9.507812 30.472656 C 9.621094 30.359375 9.710938 30.222656 9.773438 30.074219 C 9.835938 29.921875 9.867188 29.765625 9.867188 29.601562 L 9.867188 27.132812 C 9.867188 26.972656 9.835938 26.8125 9.773438 26.664062 C 9.710938 26.511719 9.621094 26.378906 9.507812 26.261719 C 9.390625 26.144531 9.257812 26.058594 9.105469 25.996094 C 8.957031 25.933594 8.796875 25.902344 8.636719 25.902344 L 6.167969 25.902344 C 6.003906 25.902344 5.847656 25.933594 5.695312 25.996094 C 5.542969 26.058594 5.410156 26.144531 5.296875 26.261719 C 5.179688 26.378906 5.089844 26.511719 5.027344 26.664062 C 4.964844 26.8125 4.933594 26.972656 4.933594 27.132812 Z M 6.167969 27.132812 L 8.636719 27.132812 L 8.636719 29.601562 L 6.167969 29.601562 Z M 6.167969 27.132812 "/><path style=" stroke:none;fill-rule:nonzero;fill:#f5fbf9;fill-opacity:1;" d="M 12.335938 29.601562 C 12.335938 29.765625 12.367188 29.921875 12.429688 30.074219 C 12.492188 30.222656 12.582031 30.359375 12.695312 30.472656 C 12.8125 30.589844 12.945312 30.679688 13.097656 30.742188 C 13.25 30.804688 13.40625 30.835938 13.570312 30.835938 L 16.035156 30.835938 C 16.199219 30.835938 16.355469 30.804688 16.507812 30.742188 C 16.660156 30.679688 16.792969 30.589844 16.910156 30.472656 C 17.023438 30.359375 17.113281 30.222656 17.175781 30.074219 C 17.238281 29.921875 17.269531 29.765625 17.269531 29.601562 L 17.269531 27.132812 C 17.269531 26.972656 17.238281 26.8125 17.175781 26.664062 C 17.113281 26.511719 17.023438 26.378906 16.910156 26.261719 C 16.792969 26.144531 16.660156 26.058594 16.507812 25.996094 C 16.355469 25.933594 16.199219 25.902344 16.035156 25.902344 L 13.570312 25.902344 C 13.40625 25.902344 13.25 25.933594 13.097656 25.996094 C 12.945312 26.058594 12.8125 26.144531 12.695312 26.261719 C 12.582031 26.378906 12.492188 26.511719 12.429688 26.664062 C 12.367188 26.8125 12.335938 26.972656 12.335938 27.132812 Z M 13.570312 27.132812 L 16.035156 27.132812 L 16.035156 29.601562 L 13.570312 29.601562 Z M 13.570312 27.132812 "/><path style=" stroke:none;fill-rule:nonzero;fill:#f5fbf9;fill-opacity:1;" d="M 19.738281 29.601562 C 19.738281 29.765625 19.769531 29.921875 19.832031 30.074219 C 19.894531 30.222656 19.984375 30.359375 20.097656 30.472656 C 20.214844 30.589844 20.347656 30.679688 20.5 30.742188 C 20.648438 30.804688 20.808594 30.835938 20.96875 30.835938 L 23.4375 30.835938 C 23.601562 30.835938 23.757812 30.804688 23.910156 30.742188 C 24.0625 30.679688 24.195312 30.589844 24.308594 30.472656 C 24.425781 30.359375 24.515625 30.222656 24.578125 30.074219 C 24.640625 29.921875 24.671875 29.765625 24.671875 29.601562 L 24.671875 27.132812 C 24.671875 26.972656 24.640625 26.8125 24.578125 26.664062 C 24.515625 26.511719 24.425781 26.378906 24.308594 26.261719 C 24.195312 26.144531 24.0625 26.058594 23.910156 25.996094 C 23.757812 25.933594 23.601562 25.902344 23.4375 25.902344 L 20.96875 25.902344 C 20.808594 25.902344 20.648438 25.933594 20.5 25.996094 C 20.347656 26.058594 20.214844 26.144531 20.097656 26.261719 C 19.984375 26.378906 19.894531 26.511719 19.832031 26.664062 C 19.769531 26.8125 19.738281 26.972656 19.738281 27.132812 Z M 20.96875 27.132812 L 23.4375 27.132812 L 23.4375 29.601562 L 20.96875 29.601562 Z M 20.96875 27.132812 "/><g clip-rule="nonzero" clip-path="url(#db114fe1d9)"><path style=" stroke:none;fill-rule:nonzero;fill:#f5fbf9;fill-opacity:1;" d="M 32.074219 2.464844 L 30.222656 2.464844 L 30.222656 2.15625 C 30.222656 1.867188 30.167969 1.59375 30.058594 1.328125 C 29.949219 1.0625 29.792969 0.832031 29.589844 0.628906 C 29.386719 0.425781 29.152344 0.269531 28.890625 0.160156 C 28.625 0.0507812 28.347656 -0.00390625 28.0625 -0.00390625 C 27.777344 -0.00390625 27.5 0.0507812 27.238281 0.160156 C 26.972656 0.269531 26.738281 0.425781 26.535156 0.628906 C 26.335938 0.832031 26.179688 1.0625 26.070312 1.328125 C 25.960938 1.59375 25.90625 1.867188 25.90625 2.15625 L 25.90625 2.464844 L 20.660156 2.464844 L 20.660156 2.15625 C 20.660156 1.867188 20.605469 1.59375 20.496094 1.328125 C 20.386719 1.0625 20.230469 0.832031 20.03125 0.628906 C 19.828125 0.425781 19.59375 0.269531 19.328125 0.160156 C 19.066406 0.0507812 18.789062 -0.00390625 18.503906 -0.00390625 C 18.21875 -0.00390625 17.941406 0.0507812 17.675781 0.160156 C 17.414062 0.269531 17.179688 0.425781 16.976562 0.628906 C 16.773438 0.832031 16.617188 1.0625 16.507812 1.328125 C 16.398438 1.59375 16.34375 1.867188 16.34375 2.15625 L 16.34375 2.464844 L 11.101562 2.464844 L 11.101562 2.15625 C 11.101562 1.867188 11.046875 1.59375 10.9375 1.328125 C 10.828125 1.0625 10.671875 0.832031 10.46875 0.628906 C 10.265625 0.425781 10.035156 0.269531 9.769531 0.160156 C 9.503906 0.0507812 9.230469 -0.00390625 8.941406 -0.00390625 C 8.65625 -0.00390625 8.382812 0.0507812 8.117188 0.160156 C 7.851562 0.269531 7.621094 0.425781 7.417969 0.628906 C 7.214844 0.832031 7.058594 1.0625 6.949219 1.328125 C 6.839844 1.59375 6.785156 1.867188 6.785156 2.15625 L 6.785156 2.464844 L 4.933594 2.464844 C 4.527344 2.464844 4.132812 2.542969 3.753906 2.699219 C 3.378906 2.855469 3.042969 3.078125 2.753906 3.367188 C 2.464844 3.65625 2.242188 3.988281 2.085938 4.367188 C 1.929688 4.746094 1.851562 5.136719 1.851562 5.546875 L 1.851562 24.667969 C 1.851562 24.835938 1.910156 24.984375 2.03125 25.101562 C 2.152344 25.222656 2.296875 25.285156 2.46875 25.285156 C 2.636719 25.285156 2.78125 25.222656 2.902344 25.101562 C 3.023438 24.984375 3.082031 24.835938 3.082031 24.667969 L 3.082031 11.097656 L 33.921875 11.097656 L 33.921875 25.902344 C 33.921875 26.070312 33.863281 26.214844 33.742188 26.335938 C 33.621094 26.457031 33.476562 26.515625 33.304688 26.515625 L 30.222656 26.515625 C 29.8125 26.519531 29.421875 26.597656 29.042969 26.753906 C 28.664062 26.910156 28.332031 27.132812 28.042969 27.421875 C 27.753906 27.710938 27.53125 28.042969 27.375 28.421875 C 27.21875 28.800781 27.136719 29.191406 27.136719 29.601562 L 27.136719 32.683594 C 27.136719 32.855469 27.078125 33 26.957031 33.121094 C 26.835938 33.242188 26.691406 33.300781 26.519531 33.300781 L 4.933594 33.265625 C 4.6875 33.265625 4.453125 33.21875 4.226562 33.125 C 4 33.03125 3.800781 32.894531 3.625 32.722656 C 3.453125 32.550781 3.320312 32.347656 3.226562 32.121094 C 3.128906 31.894531 3.082031 31.660156 3.082031 31.414062 L 3.082031 29.601562 C 3.082031 29.429688 3.023438 29.285156 2.902344 29.164062 C 2.78125 29.042969 2.636719 28.984375 2.46875 28.984375 C 2.296875 28.984375 2.152344 29.042969 2.03125 29.164062 C 1.910156 29.285156 1.851562 29.429688 1.851562 29.601562 L 1.851562 33.917969 C 1.851562 34.328125 1.929688 34.722656 2.085938 35.097656 C 2.242188 35.476562 2.464844 35.808594 2.753906 36.097656 C 3.042969 36.386719 3.378906 36.609375 3.753906 36.765625 C 4.132812 36.921875 4.527344 37.003906 4.933594 37.003906 L 32.074219 37.003906 C 32.480469 37.003906 32.875 36.921875 33.25 36.765625 C 33.628906 36.609375 33.960938 36.386719 34.25 36.097656 C 34.539062 35.808594 34.765625 35.476562 34.921875 35.097656 C 35.078125 34.722656 35.15625 34.328125 35.15625 33.917969 L 35.15625 5.546875 C 35.15625 5.136719 35.078125 4.746094 34.921875 4.367188 C 34.765625 3.988281 34.539062 3.65625 34.25 3.367188 C 33.960938 3.078125 33.628906 2.855469 33.25 2.699219 C 32.875 2.542969 32.480469 2.464844 32.074219 2.464844 Z M 27.136719 2.15625 C 27.136719 1.898438 27.226562 1.679688 27.410156 1.5 C 27.589844 1.320312 27.808594 1.230469 28.0625 1.230469 C 28.320312 1.230469 28.535156 1.320312 28.71875 1.5 C 28.898438 1.679688 28.988281 1.898438 28.988281 2.15625 L 28.988281 4.621094 C 28.988281 4.878906 28.898438 5.09375 28.71875 5.277344 C 28.535156 5.457031 28.320312 5.546875 28.0625 5.546875 C 27.808594 5.546875 27.589844 5.457031 27.410156 5.277344 C 27.226562 5.09375 27.136719 4.878906 27.136719 4.621094 Z M 17.578125 2.15625 C 17.578125 1.898438 17.667969 1.679688 17.847656 1.5 C 18.03125 1.320312 18.246094 1.230469 18.503906 1.230469 C 18.757812 1.230469 18.976562 1.320312 19.15625 1.5 C 19.339844 1.679688 19.429688 1.898438 19.429688 2.15625 L 19.429688 4.621094 C 19.429688 4.878906 19.339844 5.09375 19.15625 5.277344 C 18.976562 5.457031 18.757812 5.546875 18.503906 5.546875 C 18.246094 5.546875 18.03125 5.457031 17.847656 5.277344 C 17.667969 5.09375 17.578125 4.878906 17.578125 4.621094 Z M 8.019531 2.15625 C 8.019531 1.898438 8.109375 1.679688 8.289062 1.5 C 8.46875 1.320312 8.6875 1.230469 8.941406 1.230469 C 9.199219 1.230469 9.417969 1.320312 9.597656 1.5 C 9.777344 1.679688 9.867188 1.898438 9.867188 2.15625 L 9.867188 4.621094 C 9.867188 4.878906 9.777344 5.09375 9.597656 5.277344 C 9.417969 5.457031 9.199219 5.546875 8.941406 5.546875 C 8.6875 5.546875 8.46875 5.457031 8.289062 5.277344 C 8.109375 5.09375 8.019531 4.878906 8.019531 4.621094 Z M 3.082031 9.863281 L 3.082031 5.546875 C 3.082031 5.300781 3.128906 5.066406 3.226562 4.839844 C 3.320312 4.613281 3.453125 4.414062 3.625 4.238281 C 3.800781 4.066406 4 3.929688 4.226562 3.835938 C 4.453125 3.742188 4.6875 3.695312 4.933594 3.695312 L 6.785156 3.695312 L 6.785156 4.621094 C 6.785156 4.910156 6.839844 5.183594 6.949219 5.449219 C 7.058594 5.710938 7.214844 5.945312 7.417969 6.148438 C 7.621094 6.351562 7.851562 6.507812 8.117188 6.617188 C 8.382812 6.726562 8.65625 6.78125 8.941406 6.78125 C 9.230469 6.78125 9.503906 6.726562 9.769531 6.617188 C 10.035156 6.507812 10.265625 6.351562 10.46875 6.148438 C 10.671875 5.945312 10.828125 5.710938 10.9375 5.449219 C 11.046875 5.183594 11.101562 4.910156 11.101562 4.621094 L 11.101562 3.695312 L 16.34375 3.695312 L 16.34375 4.621094 C 16.34375 4.910156 16.398438 5.183594 16.507812 5.449219 C 16.617188 5.710938 16.773438 5.945312 16.976562 6.148438 C 17.179688 6.351562 17.414062 6.507812 17.675781 6.617188 C 17.941406 6.726562 18.21875 6.78125 18.503906 6.78125 C 18.789062 6.78125 19.066406 6.726562 19.328125 6.617188 C 19.59375 6.507812 19.828125 6.351562 20.03125 6.148438 C 20.230469 5.945312 20.386719 5.710938 20.496094 5.449219 C 20.605469 5.183594 20.660156 4.910156 20.660156 4.621094 L 20.660156 3.695312 L 25.90625 3.695312 L 25.90625 4.621094 C 25.90625 4.910156 25.960938 5.183594 26.070312 5.449219 C 26.179688 5.710938 26.335938 5.945312 26.535156 6.148438 C 26.738281 6.351562 26.972656 6.507812 27.238281 6.617188 C 27.5 6.726562 27.777344 6.78125 28.0625 6.78125 C 28.347656 6.78125 28.625 6.726562 28.890625 6.617188 C 29.152344 6.507812 29.386719 6.351562 29.589844 6.148438 C 29.792969 5.945312 29.949219 5.710938 30.058594 5.449219 C 30.167969 5.183594 30.222656 4.910156 30.222656 4.621094 L 30.222656 3.695312 L 32.074219 3.695312 C 32.316406 3.695312 32.554688 3.742188 32.78125 3.835938 C 33.007812 3.929688 33.207031 4.066406 33.378906 4.238281 C 33.554688 4.414062 33.6875 4.613281 33.78125 4.839844 C 33.875 5.066406 33.921875 5.300781 33.921875 5.546875 L 33.921875 9.863281 Z M 28.371094 29.601562 C 28.371094 29.355469 28.417969 29.121094 28.511719 28.894531 C 28.605469 28.667969 28.738281 28.464844 28.914062 28.292969 C 29.085938 28.121094 29.289062 27.984375 29.515625 27.890625 C 29.742188 27.796875 29.976562 27.75 30.222656 27.75 L 33.050781 27.75 L 28.371094 32.429688 Z M 32.074219 35.769531 L 4.933594 35.769531 C 4.683594 35.769531 4.445312 35.71875 4.214844 35.621094 C 3.984375 35.523438 3.78125 35.386719 3.609375 35.207031 C 3.433594 35.027344 3.300781 34.820312 3.210938 34.589844 C 3.121094 34.355469 3.078125 34.113281 3.082031 33.863281 C 3.628906 34.28125 4.242188 34.492188 4.929688 34.496094 L 26.726562 34.535156 C 27.582031 34.535156 28.3125 34.234375 28.917969 33.628906 L 33.921875 28.625 L 33.921875 33.917969 C 33.921875 34.164062 33.875 34.398438 33.78125 34.625 C 33.6875 34.855469 33.554688 35.054688 33.378906 35.226562 C 33.207031 35.402344 33.007812 35.535156 32.78125 35.628906 C 32.554688 35.722656 32.316406 35.769531 32.074219 35.769531 Z M 32.074219 35.769531 "/></g><g clip-rule="nonzero" clip-path="url(#74e390b7ec)"><path style=" stroke:none;fill-rule:nonzero;fill:#f5fbf9;fill-opacity:1;" d="M 3.082031 27.132812 C 3.082031 27.304688 3.023438 27.449219 2.902344 27.570312 C 2.78125 27.691406 2.636719 27.75 2.46875 27.75 C 2.296875 27.75 2.152344 27.691406 2.03125 27.570312 C 1.910156 27.449219 1.851562 27.304688 1.851562 27.132812 C 1.851562 26.964844 1.910156 26.820312 2.03125 26.699219 C 2.152344 26.578125 2.296875 26.515625 2.46875 26.515625 C 2.636719 26.515625 2.78125 26.578125 2.902344 26.699219 C 3.023438 26.820312 3.082031 26.964844 3.082031 27.132812 Z M 3.082031 27.132812 "/></g></g></svg>